<svg width="247" height="22" viewBox="0 0 247 22" fill="none" xmlns="http://www.w3.org/2000/svg">
<g clip-path="url(#clip0_2545_1076)">
<path d="M7.25672 3.93421C7.53172 3.28104 8.46832 3.28104 8.74332 3.93421L10.3663 7.78933C10.4823 8.06469 10.7445 8.25284 11.0454 8.27667L15.2582 8.61033C15.9719 8.66686 16.2614 9.54686 15.7175 10.0071L12.5079 12.7233C12.2786 12.9173 12.1784 13.2218 12.2485 13.5118L13.2291 17.5732C13.3952 18.2613 12.6375 18.8052 12.0264 18.4365L8.41965 16.26C8.16202 16.1045 7.83802 16.1045 7.5804 16.26L3.9736 18.4365C3.3625 18.8052 2.60477 18.2613 2.77091 17.5732L3.75155 13.5118C3.82159 13.2218 3.72147 12.9173 3.49221 12.7233L0.28245 10.0071C-0.261375 9.54686 0.0280544 8.66686 0.741835 8.61033L4.9547 8.27667C5.25561 8.25284 5.51774 8.06469 5.63367 7.78933L7.25672 3.93421Z" fill="black"/>
<path d="M27.2567 3.93421C27.5317 3.28104 28.4683 3.28104 28.7433 3.93421L30.3663 7.78933C30.4823 8.06469 30.7445 8.25284 31.0454 8.27667L35.2582 8.61033C35.9719 8.66686 36.2614 9.54686 35.7175 10.0071L32.5079 12.7233C32.2786 12.9173 32.1784 13.2218 32.2485 13.5118L33.2291 17.5732C33.3952 18.2613 32.6375 18.8052 32.0264 18.4365L28.4196 16.26C28.162 16.1045 27.838 16.1045 27.5804 16.26L23.9736 18.4365C23.3625 18.8052 22.6048 18.2613 22.7709 17.5732L23.7515 13.5118C23.8216 13.2218 23.7215 12.9173 23.4922 12.7233L20.2825 10.0071C19.7386 9.54686 20.0281 8.66686 20.7418 8.61033L24.9547 8.27667C25.2556 8.25284 25.5177 8.06469 25.6337 7.78933L27.2567 3.93421Z" fill="black"/>
<path d="M47.2567 3.93421C47.5317 3.28104 48.4683 3.28104 48.7433 3.93421L50.3663 7.78933C50.4823 8.06469 50.7445 8.25284 51.0454 8.27667L55.2582 8.61033C55.9719 8.66686 56.2614 9.54686 55.7175 10.0071L52.5079 12.7233C52.2786 12.9173 52.1784 13.2218 52.2485 13.5118L53.2291 17.5732C53.3952 18.2613 52.6375 18.8052 52.0264 18.4365L48.4196 16.26C48.162 16.1045 47.838 16.1045 47.5804 16.26L43.9736 18.4365C43.3625 18.8052 42.6048 18.2613 42.7709 17.5732L43.7515 13.5118C43.8216 13.2218 43.7215 12.9173 43.4922 12.7233L40.2825 10.0071C39.7386 9.54686 40.0281 8.66686 40.7418 8.61033L44.9547 8.27667C45.2556 8.25284 45.5177 8.06469 45.6337 7.78933L47.2567 3.93421Z" fill="black"/>
<path fill-rule="evenodd" clip-rule="evenodd" d="M75.9144 9.05599L75.9782 9.25599C76.0307 9.40694 75.9865 9.57471 75.8665 9.67999L71.9892 13L73.138 17.976C73.1769 18.135 73.1172 18.302 72.9864 18.4L72.8109 18.52C72.7427 18.5736 72.6582 18.6018 72.5716 18.6C72.4985 18.6015 72.4266 18.5821 72.3642 18.544L68.0002 15.88L63.6601 18.544C63.5977 18.5821 63.5257 18.6015 63.4527 18.6C63.3661 18.6018 63.2815 18.5736 63.2133 18.52L63.0139 18.4C62.8831 18.302 62.8234 18.135 62.8623 17.976L64.0111 13L60.1418 9.68799C60.0156 9.58334 59.9678 9.41091 60.0221 9.25599L60.1099 9.05599C60.1565 8.89793 60.2968 8.78603 60.4609 8.77599L65.5589 8.36799L67.5135 3.65599C67.5761 3.49951 67.7283 3.39778 67.8965 3.39999H68.1039C68.2705 3.39645 68.4211 3.49923 68.4788 3.65599L70.4654 8.36799L75.5634 8.77599C75.7275 8.78603 75.8677 8.89793 75.9144 9.05599ZM71.2871 16.248L70.3936 12.504L73.3215 9.99999L69.4841 9.69599L68.0002 6.12799V14.24L71.2871 16.248Z" fill="black"/>
<path d="M92.1848 12.3417L92.1849 12.3416L95.3946 9.6254C95.5894 9.46047 95.4981 9.1309 95.2187 9.10877L91.0059 8.77511C90.5211 8.73671 90.095 8.43319 89.9056 7.98345L89.9055 7.98334L88.2825 4.12823C88.1793 3.88304 87.8208 3.88304 87.7175 4.12823L86.0945 7.98334C85.9051 8.4332 85.479 8.73671 84.9942 8.77511L80.7813 9.10877C80.5019 9.1309 80.4106 9.46047 80.6054 9.62539C80.6054 9.6254 80.6054 9.6254 80.6054 9.6254L83.8152 12.3416L83.8152 12.3416C84.1876 12.6568 84.3524 13.1538 84.2376 13.6292C84.2376 13.6292 84.2376 13.6292 84.2376 13.6292L83.2569 17.6905C83.199 17.9304 83.4698 18.1564 83.7153 18.0084C83.7153 18.0084 83.7153 18.0084 83.7153 18.0084L87.3221 15.8319C87.7386 15.5806 88.2615 15.5806 88.678 15.8319L92.1848 12.3417ZM92.1848 12.3417C91.8125 12.6568 91.6476 13.1538 91.7624 13.6292L92.7431 17.6905C92.801 17.9304 92.5302 18.1564 92.2848 18.0084C92.2847 18.0084 92.2847 18.0084 92.2847 18.0083L88.678 15.8319L92.1848 12.3417Z" stroke="black"/>
</g>
<path d="M105.315 11.5215V11.4531C105.315 10.4596 105.427 9.56185 105.65 8.75977C105.874 7.95312 106.159 7.24674 106.505 6.64062C106.851 6.03451 107.216 5.5332 107.599 5.13672C107.981 4.73568 108.335 4.44629 108.658 4.26855L108.925 5.10254C108.656 5.30762 108.382 5.59017 108.104 5.9502C107.831 6.31022 107.578 6.75228 107.346 7.27637C107.118 7.80046 106.933 8.40885 106.792 9.10156C106.651 9.79427 106.58 10.5736 106.58 11.4395V11.5352C106.58 12.401 106.651 13.1826 106.792 13.8799C106.933 14.5726 107.118 15.1833 107.346 15.7119C107.578 16.2406 107.831 16.6895 108.104 17.0586C108.382 17.4323 108.656 17.7285 108.925 17.9473L108.658 18.7129C108.335 18.5352 107.981 18.2458 107.599 17.8447C107.216 17.4482 106.851 16.9469 106.505 16.3408C106.159 15.7393 105.874 15.0352 105.65 14.2285C105.427 13.4219 105.315 12.5195 105.315 11.5215ZM111.871 9.90137H112.773C113.215 9.90137 113.58 9.82845 113.867 9.68262C114.159 9.53223 114.375 9.32943 114.517 9.07422C114.662 8.81445 114.735 8.52279 114.735 8.19922C114.735 7.81641 114.672 7.49512 114.544 7.23535C114.416 6.97559 114.225 6.77962 113.97 6.64746C113.715 6.5153 113.391 6.44922 112.999 6.44922C112.644 6.44922 112.329 6.51986 112.056 6.66113C111.787 6.79785 111.575 6.99382 111.42 7.24902C111.27 7.50423 111.194 7.80501 111.194 8.15137H109.93C109.93 7.64551 110.057 7.18522 110.312 6.77051C110.568 6.35579 110.925 6.02539 111.386 5.7793C111.851 5.5332 112.388 5.41016 112.999 5.41016C113.601 5.41016 114.127 5.51725 114.578 5.73145C115.029 5.94108 115.38 6.25553 115.631 6.6748C115.882 7.08952 116.007 7.60677 116.007 8.22656C116.007 8.47721 115.948 8.74609 115.829 9.0332C115.715 9.31576 115.535 9.58008 115.289 9.82617C115.048 10.0723 114.733 10.2751 114.346 10.4346C113.958 10.5895 113.493 10.667 112.951 10.667H111.871V9.90137ZM111.871 10.9404V10.1816H112.951C113.585 10.1816 114.109 10.2568 114.523 10.4072C114.938 10.5576 115.264 10.7581 115.501 11.0088C115.743 11.2594 115.911 11.5352 116.007 11.8359C116.107 12.1322 116.157 12.4284 116.157 12.7246C116.157 13.1895 116.077 13.6019 115.918 13.9619C115.763 14.3219 115.542 14.6273 115.255 14.8779C114.972 15.1286 114.64 15.3177 114.257 15.4453C113.874 15.5729 113.457 15.6367 113.006 15.6367C112.573 15.6367 112.165 15.5752 111.782 15.4521C111.404 15.3291 111.069 15.1514 110.777 14.9189C110.486 14.682 110.258 14.3926 110.094 14.0508C109.93 13.7044 109.848 13.3102 109.848 12.8682H111.112C111.112 13.2145 111.188 13.5176 111.338 13.7773C111.493 14.0371 111.712 14.2399 111.994 14.3857C112.281 14.527 112.618 14.5977 113.006 14.5977C113.393 14.5977 113.726 14.5316 114.004 14.3994C114.286 14.2627 114.503 14.0576 114.653 13.7842C114.808 13.5107 114.886 13.1667 114.886 12.752C114.886 12.3372 114.799 11.9977 114.626 11.7334C114.453 11.4645 114.207 11.2663 113.888 11.1387C113.573 11.0065 113.202 10.9404 112.773 10.9404H111.871ZM118.058 14.8301C118.058 14.6159 118.124 14.4359 118.256 14.29C118.393 14.1396 118.589 14.0645 118.844 14.0645C119.099 14.0645 119.293 14.1396 119.425 14.29C119.562 14.4359 119.63 14.6159 119.63 14.8301C119.63 15.0397 119.562 15.2174 119.425 15.3633C119.293 15.5091 119.099 15.582 118.844 15.582C118.589 15.582 118.393 15.5091 118.256 15.3633C118.124 15.2174 118.058 15.0397 118.058 14.8301ZM123.191 10.7627L122.18 10.5029L122.679 5.54688H127.785V6.71582H123.752L123.451 9.42285C123.633 9.31803 123.864 9.22005 124.142 9.12891C124.424 9.03776 124.748 8.99219 125.112 8.99219C125.573 8.99219 125.985 9.07194 126.35 9.23145C126.714 9.38639 127.024 9.6097 127.279 9.90137C127.539 10.193 127.737 10.5439 127.874 10.9541C128.011 11.3643 128.079 11.8223 128.079 12.3281C128.079 12.8066 128.013 13.2464 127.881 13.6475C127.753 14.0485 127.56 14.3994 127.3 14.7002C127.04 14.9964 126.712 15.2266 126.315 15.3906C125.924 15.5547 125.461 15.6367 124.928 15.6367C124.527 15.6367 124.146 15.582 123.786 15.4727C123.431 15.3587 123.112 15.1878 122.829 14.96C122.551 14.7275 122.323 14.4404 122.146 14.0986C121.972 13.7523 121.863 13.3467 121.817 12.8818H123.021C123.075 13.2555 123.185 13.57 123.349 13.8252C123.513 14.0804 123.727 14.2741 123.991 14.4062C124.26 14.5339 124.572 14.5977 124.928 14.5977C125.229 14.5977 125.495 14.5452 125.728 14.4404C125.96 14.3356 126.156 14.1852 126.315 13.9893C126.475 13.7933 126.596 13.5563 126.678 13.2783C126.764 13.0003 126.808 12.6882 126.808 12.3418C126.808 12.0273 126.764 11.7357 126.678 11.4668C126.591 11.1979 126.461 10.9632 126.288 10.7627C126.119 10.5622 125.912 10.4072 125.666 10.2979C125.42 10.1839 125.137 10.127 124.818 10.127C124.395 10.127 124.073 10.1839 123.854 10.2979C123.64 10.4118 123.419 10.5667 123.191 10.7627ZM137.383 13.5381C137.383 13.3558 137.342 13.1872 137.26 13.0322C137.182 12.8727 137.021 12.7292 136.774 12.6016C136.533 12.4694 136.168 12.3555 135.681 12.2598C135.271 12.1732 134.899 12.0706 134.566 11.9521C134.238 11.8337 133.958 11.6901 133.726 11.5215C133.498 11.3529 133.322 11.1546 133.199 10.9268C133.076 10.6989 133.015 10.4323 133.015 10.127C133.015 9.83529 133.078 9.55957 133.206 9.2998C133.338 9.04004 133.523 8.8099 133.76 8.60938C134.001 8.40885 134.291 8.25163 134.628 8.1377C134.965 8.02376 135.341 7.9668 135.756 7.9668C136.348 7.9668 136.854 8.07161 137.273 8.28125C137.693 8.49089 138.014 8.77116 138.237 9.12207C138.461 9.46842 138.572 9.85352 138.572 10.2773H137.308C137.308 10.0723 137.246 9.87402 137.123 9.68262C137.005 9.48665 136.829 9.32487 136.597 9.19727C136.369 9.06966 136.089 9.00586 135.756 9.00586C135.405 9.00586 135.12 9.06055 134.901 9.16992C134.687 9.27474 134.53 9.40918 134.43 9.57324C134.334 9.7373 134.286 9.91048 134.286 10.0928C134.286 10.2295 134.309 10.3525 134.354 10.4619C134.405 10.5667 134.491 10.6647 134.614 10.7559C134.737 10.8424 134.91 10.9245 135.134 11.002C135.357 11.0794 135.642 11.1569 135.988 11.2344C136.594 11.3711 137.093 11.5352 137.485 11.7266C137.877 11.918 138.169 12.1527 138.36 12.4307C138.552 12.7087 138.647 13.0459 138.647 13.4424C138.647 13.766 138.579 14.0622 138.442 14.3311C138.31 14.5999 138.117 14.8324 137.861 15.0283C137.611 15.2197 137.31 15.3701 136.959 15.4795C136.613 15.5843 136.223 15.6367 135.79 15.6367C135.138 15.6367 134.587 15.5205 134.136 15.2881C133.685 15.0557 133.343 14.7549 133.11 14.3857C132.878 14.0166 132.762 13.627 132.762 13.2168H134.033C134.051 13.5632 134.152 13.8389 134.334 14.0439C134.516 14.2445 134.74 14.388 135.004 14.4746C135.268 14.5566 135.53 14.5977 135.79 14.5977C136.136 14.5977 136.426 14.5521 136.658 14.4609C136.895 14.3698 137.075 14.2445 137.198 14.085C137.321 13.9255 137.383 13.7432 137.383 13.5381ZM143.405 8.10352V9.07422H139.406V8.10352H143.405ZM140.76 6.30566H142.024V13.668C142.024 13.9186 142.063 14.1077 142.141 14.2354C142.218 14.363 142.318 14.4473 142.441 14.4883C142.564 14.5293 142.697 14.5498 142.838 14.5498C142.943 14.5498 143.052 14.5407 143.166 14.5225C143.285 14.4997 143.373 14.4814 143.433 14.4678L143.439 15.5C143.339 15.5319 143.207 15.5615 143.043 15.5889C142.883 15.6208 142.69 15.6367 142.462 15.6367C142.152 15.6367 141.867 15.5752 141.607 15.4521C141.348 15.3291 141.14 15.124 140.985 14.8369C140.835 14.5452 140.76 14.1533 140.76 13.6611V6.30566ZM149.25 14.2354V10.4277C149.25 10.1361 149.191 9.88314 149.072 9.66895C148.958 9.4502 148.785 9.28158 148.553 9.16309C148.32 9.0446 148.033 8.98535 147.691 8.98535C147.372 8.98535 147.092 9.04004 146.851 9.14941C146.614 9.25879 146.427 9.40234 146.29 9.58008C146.158 9.75781 146.092 9.94922 146.092 10.1543H144.827C144.827 9.88997 144.896 9.62793 145.032 9.36816C145.169 9.1084 145.365 8.8737 145.62 8.66406C145.88 8.44987 146.19 8.28125 146.55 8.1582C146.914 8.0306 147.32 7.9668 147.767 7.9668C148.304 7.9668 148.778 8.05794 149.188 8.24023C149.603 8.42253 149.927 8.69824 150.159 9.06738C150.396 9.43197 150.515 9.88997 150.515 10.4414V13.8867C150.515 14.1328 150.535 14.3949 150.576 14.6729C150.622 14.9508 150.688 15.1901 150.774 15.3906V15.5H149.455C149.391 15.3542 149.341 15.1605 149.305 14.9189C149.268 14.6729 149.25 14.445 149.25 14.2354ZM149.469 11.0156L149.482 11.9043H148.204C147.844 11.9043 147.523 11.9339 147.24 11.9932C146.958 12.0479 146.721 12.1322 146.529 12.2461C146.338 12.36 146.192 12.5036 146.092 12.6768C145.992 12.8454 145.941 13.0436 145.941 13.2715C145.941 13.5039 145.994 13.7158 146.099 13.9072C146.203 14.0986 146.361 14.2513 146.57 14.3652C146.785 14.4746 147.047 14.5293 147.356 14.5293C147.744 14.5293 148.086 14.4473 148.382 14.2832C148.678 14.1191 148.913 13.9186 149.086 13.6816C149.264 13.4447 149.359 13.2145 149.373 12.9912L149.913 13.5996C149.881 13.791 149.795 14.0029 149.653 14.2354C149.512 14.4678 149.323 14.6911 149.086 14.9053C148.854 15.1149 148.576 15.2904 148.252 15.4316C147.933 15.5684 147.573 15.6367 147.172 15.6367C146.671 15.6367 146.231 15.5387 145.853 15.3428C145.479 15.1468 145.187 14.8848 144.978 14.5566C144.772 14.224 144.67 13.8525 144.67 13.4424C144.67 13.0459 144.747 12.6973 144.902 12.3965C145.057 12.0911 145.281 11.8382 145.572 11.6377C145.864 11.4326 146.215 11.2777 146.625 11.1729C147.035 11.068 147.493 11.0156 147.999 11.0156H149.469ZM153.769 9.26562V15.5H152.504V8.10352H153.734L153.769 9.26562ZM156.079 8.0625L156.072 9.23828C155.967 9.21549 155.867 9.20182 155.771 9.19727C155.68 9.18815 155.576 9.18359 155.457 9.18359C155.165 9.18359 154.908 9.22917 154.685 9.32031C154.461 9.41146 154.272 9.53906 154.117 9.70312C153.962 9.86719 153.839 10.0632 153.748 10.291C153.661 10.5143 153.604 10.7604 153.577 11.0293L153.222 11.2344C153.222 10.7878 153.265 10.3685 153.352 9.97656C153.443 9.58464 153.582 9.23828 153.769 8.9375C153.955 8.63216 154.192 8.39518 154.479 8.22656C154.771 8.05339 155.118 7.9668 155.519 7.9668C155.61 7.9668 155.715 7.97819 155.833 8.00098C155.951 8.01921 156.034 8.03971 156.079 8.0625ZM161.555 13.5381C161.555 13.3558 161.514 13.1872 161.432 13.0322C161.354 12.8727 161.192 12.7292 160.946 12.6016C160.705 12.4694 160.34 12.3555 159.853 12.2598C159.442 12.1732 159.071 12.0706 158.738 11.9521C158.41 11.8337 158.13 11.6901 157.897 11.5215C157.67 11.3529 157.494 11.1546 157.371 10.9268C157.248 10.6989 157.187 10.4323 157.187 10.127C157.187 9.83529 157.25 9.55957 157.378 9.2998C157.51 9.04004 157.695 8.8099 157.932 8.60938C158.173 8.40885 158.463 8.25163 158.8 8.1377C159.137 8.02376 159.513 7.9668 159.928 7.9668C160.52 7.9668 161.026 8.07161 161.445 8.28125C161.865 8.49089 162.186 8.77116 162.409 9.12207C162.632 9.46842 162.744 9.85352 162.744 10.2773H161.479C161.479 10.0723 161.418 9.87402 161.295 9.68262C161.176 9.48665 161.001 9.32487 160.769 9.19727C160.541 9.06966 160.26 9.00586 159.928 9.00586C159.577 9.00586 159.292 9.06055 159.073 9.16992C158.859 9.27474 158.702 9.40918 158.602 9.57324C158.506 9.7373 158.458 9.91048 158.458 10.0928C158.458 10.2295 158.481 10.3525 158.526 10.4619C158.576 10.5667 158.663 10.6647 158.786 10.7559C158.909 10.8424 159.082 10.9245 159.306 11.002C159.529 11.0794 159.814 11.1569 160.16 11.2344C160.766 11.3711 161.265 11.5352 161.657 11.7266C162.049 11.918 162.341 12.1527 162.532 12.4307C162.724 12.7087 162.819 13.0459 162.819 13.4424C162.819 13.766 162.751 14.0622 162.614 14.3311C162.482 14.5999 162.288 14.8324 162.033 15.0283C161.783 15.2197 161.482 15.3701 161.131 15.4795C160.785 15.5843 160.395 15.6367 159.962 15.6367C159.31 15.6367 158.759 15.5205 158.308 15.2881C157.856 15.0557 157.515 14.7549 157.282 14.3857C157.05 14.0166 156.934 13.627 156.934 13.2168H158.205C158.223 13.5632 158.324 13.8389 158.506 14.0439C158.688 14.2445 158.911 14.388 159.176 14.4746C159.44 14.5566 159.702 14.5977 159.962 14.5977C160.308 14.5977 160.598 14.5521 160.83 14.4609C161.067 14.3698 161.247 14.2445 161.37 14.085C161.493 13.9255 161.555 13.7432 161.555 13.5381ZM167.393 11.4531V11.5215C167.393 12.5195 167.281 13.4219 167.058 14.2285C166.834 15.0352 166.549 15.7393 166.203 16.3408C165.857 16.9469 165.492 17.4482 165.109 17.8447C164.727 18.2458 164.373 18.5352 164.05 18.7129L163.783 17.9473C164.052 17.7422 164.323 17.4551 164.597 17.0859C164.87 16.7214 165.123 16.2702 165.355 15.7324C165.588 15.1992 165.775 14.584 165.916 13.8867C166.057 13.1849 166.128 12.401 166.128 11.5352V11.4395C166.128 10.5736 166.053 9.79199 165.902 9.09473C165.752 8.3929 165.556 7.77539 165.314 7.24219C165.077 6.70898 164.822 6.26009 164.549 5.89551C164.28 5.52637 164.025 5.24154 163.783 5.04102L164.05 4.26855C164.373 4.44629 164.727 4.73568 165.109 5.13672C165.492 5.5332 165.857 6.03451 166.203 6.64062C166.549 7.24674 166.834 7.95312 167.058 8.75977C167.281 9.56185 167.393 10.4596 167.393 11.4531ZM172.82 10.4961V10.2158C172.82 9.82389 172.943 9.50033 173.189 9.24512C173.44 8.98991 173.78 8.8623 174.208 8.8623C174.641 8.8623 174.983 8.98991 175.233 9.24512C175.484 9.50033 175.609 9.82389 175.609 10.2158V10.4961C175.609 10.8835 175.484 11.2048 175.233 11.46C174.987 11.7106 174.648 11.8359 174.215 11.8359C173.786 11.8359 173.447 11.7106 173.196 11.46C172.946 11.2048 172.82 10.8835 172.82 10.4961ZM185.057 5.49219V15.5H183.792V7.07129L181.242 8.00098V6.85938L184.858 5.49219H185.057ZM195.023 9.73047V11.248C195.023 12.0638 194.951 12.752 194.805 13.3125C194.659 13.873 194.449 14.3242 194.176 14.666C193.902 15.0078 193.572 15.2562 193.185 15.4111C192.802 15.5615 192.369 15.6367 191.886 15.6367C191.503 15.6367 191.15 15.5889 190.826 15.4932C190.503 15.3975 190.211 15.2448 189.951 15.0352C189.696 14.821 189.477 14.543 189.295 14.2012C189.113 13.8594 188.974 13.4447 188.878 12.957C188.782 12.4694 188.734 11.8997 188.734 11.248V9.73047C188.734 8.91471 188.807 8.23112 188.953 7.67969C189.104 7.12826 189.315 6.6862 189.589 6.35352C189.862 6.01628 190.19 5.77474 190.573 5.62891C190.961 5.48307 191.394 5.41016 191.872 5.41016C192.259 5.41016 192.615 5.45801 192.938 5.55371C193.267 5.64486 193.558 5.79297 193.813 5.99805C194.069 6.19857 194.285 6.46745 194.463 6.80469C194.645 7.13737 194.784 7.54525 194.88 8.02832C194.976 8.51139 195.023 9.07878 195.023 9.73047ZM193.752 11.4531V9.51855C193.752 9.07194 193.725 8.68001 193.67 8.34277C193.62 8.00098 193.545 7.70931 193.444 7.46777C193.344 7.22624 193.216 7.03027 193.062 6.87988C192.911 6.72949 192.736 6.62012 192.535 6.55176C192.339 6.47884 192.118 6.44238 191.872 6.44238C191.571 6.44238 191.305 6.49935 191.072 6.61328C190.84 6.72266 190.644 6.89811 190.484 7.13965C190.329 7.38118 190.211 7.69792 190.129 8.08984C190.047 8.48177 190.006 8.95801 190.006 9.51855V11.4531C190.006 11.8997 190.031 12.2939 190.081 12.6357C190.136 12.9775 190.215 13.2738 190.32 13.5244C190.425 13.7705 190.553 13.9733 190.703 14.1328C190.854 14.2923 191.027 14.4108 191.223 14.4883C191.423 14.5612 191.644 14.5977 191.886 14.5977C192.196 14.5977 192.467 14.5384 192.699 14.4199C192.932 14.3014 193.125 14.1169 193.28 13.8662C193.44 13.611 193.558 13.2852 193.636 12.8887C193.713 12.4876 193.752 12.0091 193.752 11.4531ZM201.524 9.26562V15.5H200.26V8.10352H201.49L201.524 9.26562ZM203.835 8.0625L203.828 9.23828C203.723 9.21549 203.623 9.20182 203.527 9.19727C203.436 9.18815 203.331 9.18359 203.213 9.18359C202.921 9.18359 202.664 9.22917 202.44 9.32031C202.217 9.41146 202.028 9.53906 201.873 9.70312C201.718 9.86719 201.595 10.0632 201.504 10.291C201.417 10.5143 201.36 10.7604 201.333 11.0293L200.978 11.2344C200.978 10.7878 201.021 10.3685 201.107 9.97656C201.199 9.58464 201.338 9.23828 201.524 8.9375C201.711 8.63216 201.948 8.39518 202.235 8.22656C202.527 8.05339 202.873 7.9668 203.274 7.9668C203.366 7.9668 203.47 7.97819 203.589 8.00098C203.707 8.01921 203.789 8.03971 203.835 8.0625ZM207.937 15.6367C207.422 15.6367 206.954 15.5501 206.535 15.377C206.12 15.1992 205.763 14.9508 205.462 14.6318C205.166 14.3128 204.938 13.9346 204.778 13.4971C204.619 13.0596 204.539 12.5811 204.539 12.0615V11.7744C204.539 11.1729 204.628 10.6374 204.806 10.168C204.983 9.69401 205.225 9.29297 205.53 8.96484C205.836 8.63672 206.182 8.38835 206.569 8.21973C206.957 8.05111 207.358 7.9668 207.772 7.9668C208.301 7.9668 208.757 8.05794 209.14 8.24023C209.527 8.42253 209.844 8.67773 210.09 9.00586C210.336 9.32943 210.518 9.71224 210.637 10.1543C210.755 10.5918 210.814 11.0703 210.814 11.5898V12.1572H205.291V11.125H209.55V11.0293C209.532 10.7012 209.463 10.3822 209.345 10.0723C209.231 9.76237 209.049 9.50716 208.798 9.30664C208.547 9.10612 208.205 9.00586 207.772 9.00586C207.485 9.00586 207.221 9.06738 206.979 9.19043C206.738 9.30892 206.531 9.48665 206.357 9.72363C206.184 9.96061 206.05 10.25 205.954 10.5918C205.858 10.9336 205.811 11.3278 205.811 11.7744V12.0615C205.811 12.4124 205.858 12.7428 205.954 13.0527C206.054 13.3581 206.198 13.627 206.385 13.8594C206.576 14.0918 206.806 14.2741 207.075 14.4062C207.349 14.5384 207.659 14.6045 208.005 14.6045C208.451 14.6045 208.83 14.5133 209.14 14.3311C209.45 14.1488 209.721 13.9049 209.953 13.5996L210.719 14.208C210.559 14.4495 210.356 14.6797 210.11 14.8984C209.864 15.1172 209.561 15.2949 209.201 15.4316C208.846 15.5684 208.424 15.6367 207.937 15.6367ZM214.444 14.3584L216.468 8.10352H217.76L215.101 15.5H214.253L214.444 14.3584ZM212.756 8.10352L214.841 14.3926L214.984 15.5H214.137L211.457 8.10352H212.756ZM220.351 8.10352V15.5H219.079V8.10352H220.351ZM218.983 6.1416C218.983 5.93652 219.045 5.76335 219.168 5.62207C219.296 5.48079 219.482 5.41016 219.729 5.41016C219.97 5.41016 220.155 5.48079 220.282 5.62207C220.414 5.76335 220.48 5.93652 220.48 6.1416C220.48 6.33757 220.414 6.50618 220.282 6.64746C220.155 6.78418 219.97 6.85254 219.729 6.85254C219.482 6.85254 219.296 6.78418 219.168 6.64746C219.045 6.50618 218.983 6.33757 218.983 6.1416ZM225.45 15.6367C224.935 15.6367 224.468 15.5501 224.049 15.377C223.634 15.1992 223.276 14.9508 222.976 14.6318C222.679 14.3128 222.451 13.9346 222.292 13.4971C222.132 13.0596 222.053 12.5811 222.053 12.0615V11.7744C222.053 11.1729 222.142 10.6374 222.319 10.168C222.497 9.69401 222.739 9.29297 223.044 8.96484C223.349 8.63672 223.696 8.38835 224.083 8.21973C224.47 8.05111 224.871 7.9668 225.286 7.9668C225.815 7.9668 226.271 8.05794 226.653 8.24023C227.041 8.42253 227.357 8.67773 227.604 9.00586C227.85 9.32943 228.032 9.71224 228.15 10.1543C228.269 10.5918 228.328 11.0703 228.328 11.5898V12.1572H222.805V11.125H227.063V11.0293C227.045 10.7012 226.977 10.3822 226.858 10.0723C226.744 9.76237 226.562 9.50716 226.312 9.30664C226.061 9.10612 225.719 9.00586 225.286 9.00586C224.999 9.00586 224.735 9.06738 224.493 9.19043C224.252 9.30892 224.044 9.48665 223.871 9.72363C223.698 9.96061 223.563 10.25 223.468 10.5918C223.372 10.9336 223.324 11.3278 223.324 11.7744V12.0615C223.324 12.4124 223.372 12.7428 223.468 13.0527C223.568 13.3581 223.712 13.627 223.898 13.8594C224.09 14.0918 224.32 14.2741 224.589 14.4062C224.862 14.5384 225.172 14.6045 225.519 14.6045C225.965 14.6045 226.343 14.5133 226.653 14.3311C226.963 14.1488 227.234 13.9049 227.467 13.5996L228.232 14.208C228.073 14.4495 227.87 14.6797 227.624 14.8984C227.378 15.1172 227.075 15.2949 226.715 15.4316C226.359 15.5684 225.938 15.6367 225.45 15.6367ZM231.678 14.1875L233.578 8.10352H234.412L234.248 9.31348L232.313 15.5H231.5L231.678 14.1875ZM230.399 8.10352L232.02 14.2559L232.136 15.5H231.281L229.135 8.10352H230.399ZM236.23 14.208L237.775 8.10352H239.033L236.887 15.5H236.039L236.23 14.208ZM234.597 8.10352L236.456 14.085L236.668 15.5H235.861L233.872 9.2998L233.708 8.10352H234.597ZM244.639 13.5381C244.639 13.3558 244.598 13.1872 244.516 13.0322C244.438 12.8727 244.276 12.7292 244.03 12.6016C243.789 12.4694 243.424 12.3555 242.937 12.2598C242.526 12.1732 242.155 12.0706 241.822 11.9521C241.494 11.8337 241.214 11.6901 240.981 11.5215C240.754 11.3529 240.578 11.1546 240.455 10.9268C240.332 10.6989 240.271 10.4323 240.271 10.127C240.271 9.83529 240.334 9.55957 240.462 9.2998C240.594 9.04004 240.779 8.8099 241.016 8.60938C241.257 8.40885 241.547 8.25163 241.884 8.1377C242.221 8.02376 242.597 7.9668 243.012 7.9668C243.604 7.9668 244.11 8.07161 244.529 8.28125C244.949 8.49089 245.27 8.77116 245.493 9.12207C245.716 9.46842 245.828 9.85352 245.828 10.2773H244.563C244.563 10.0723 244.502 9.87402 244.379 9.68262C244.26 9.48665 244.085 9.32487 243.853 9.19727C243.625 9.06966 243.344 9.00586 243.012 9.00586C242.661 9.00586 242.376 9.06055 242.157 9.16992C241.943 9.27474 241.786 9.40918 241.686 9.57324C241.59 9.7373 241.542 9.91048 241.542 10.0928C241.542 10.2295 241.565 10.3525 241.61 10.4619C241.66 10.5667 241.747 10.6647 241.87 10.7559C241.993 10.8424 242.166 10.9245 242.39 11.002C242.613 11.0794 242.898 11.1569 243.244 11.2344C243.85 11.3711 244.349 11.5352 244.741 11.7266C245.133 11.918 245.425 12.1527 245.616 12.4307C245.808 12.7087 245.903 13.0459 245.903 13.4424C245.903 13.766 245.835 14.0622 245.698 14.3311C245.566 14.5999 245.372 14.8324 245.117 15.0283C244.867 15.2197 244.566 15.3701 244.215 15.4795C243.868 15.5843 243.479 15.6367 243.046 15.6367C242.394 15.6367 241.843 15.5205 241.392 15.2881C240.94 15.0557 240.599 14.7549 240.366 14.3857C240.134 14.0166 240.018 13.627 240.018 13.2168H241.289C241.307 13.5632 241.408 13.8389 241.59 14.0439C241.772 14.2445 241.995 14.388 242.26 14.4746C242.524 14.5566 242.786 14.5977 243.046 14.5977C243.392 14.5977 243.682 14.5521 243.914 14.4609C244.151 14.3698 244.331 14.2445 244.454 14.085C244.577 13.9255 244.639 13.7432 244.639 13.5381Z" fill="black"/>
<defs>
<clipPath id="clip0_2545_1076">
<rect width="96" height="15.2002" fill="white" transform="translate(0 3.3999)"/>
</clipPath>
</defs>
</svg>
