<svg width="225" height="30" viewBox="0 0 225 30" fill="none" xmlns="http://www.w3.org/2000/svg">
<path d="M1 29.04C0.706667 29.04 0.466667 28.9467 0.28 28.76C0.0933333 28.5733 0 28.3467 0 28.08V2.04C0 1.74667 0.0933333 1.50667 0.28 1.32C0.466667 1.13333 0.706667 1.04 1 1.04H4.16C4.53333 1.04 4.81333 1.14667 5 1.36C5.18667 1.54667 5.30667 1.69333 5.36 1.8L13.08 16.2L20.88 1.8C20.9333 1.69333 21.0533 1.54667 21.24 1.36C21.4267 1.14667 21.7067 1.04 22.08 1.04H25.2C25.4933 1.04 25.7333 1.13333 25.92 1.32C26.1067 1.50667 26.2 1.74667 26.2 2.04V28.08C26.2 28.3467 26.1067 28.5733 25.92 28.76C25.7333 28.9467 25.4933 29.04 25.2 29.04H21.84C21.5467 29.04 21.3067 28.9467 21.12 28.76C20.96 28.5733 20.88 28.3467 20.88 28.08V10.76L15.28 21.44C15.1467 21.68 14.9733 21.8933 14.76 22.08C14.5467 22.24 14.2667 22.32 13.92 22.32H12.28C11.9067 22.32 11.6133 22.24 11.4 22.08C11.2133 21.8933 11.0533 21.68 10.92 21.44L5.32 10.76V28.08C5.32 28.3467 5.22667 28.5733 5.04 28.76C4.85333 28.9467 4.62667 29.04 4.36 29.04H1Z" fill="black"/>
<path d="M41.1419 29.44C39.0085 29.44 37.2085 29.0667 35.7419 28.32C34.3019 27.5733 33.1952 26.52 32.4219 25.16C31.6752 23.8 31.2485 22.2133 31.1419 20.4C31.1152 19.92 31.1019 19.3333 31.1019 18.64C31.1019 17.9467 31.1152 17.36 31.1419 16.88C31.2485 15.04 31.6885 13.4533 32.4619 12.12C33.2619 10.76 34.3819 9.70667 35.8219 8.96C37.2885 8.21333 39.0619 7.84 41.1419 7.84C43.2219 7.84 44.9819 8.21333 46.4219 8.96C47.8885 9.70667 49.0085 10.76 49.7819 12.12C50.5819 13.4533 51.0352 15.04 51.1419 16.88C51.1685 17.36 51.1819 17.9467 51.1819 18.64C51.1819 19.3333 51.1685 19.92 51.1419 20.4C51.0352 22.2133 50.5952 23.8 49.8219 25.16C49.0752 26.52 47.9685 27.5733 46.5019 28.32C45.0619 29.0667 43.2752 29.44 41.1419 29.44ZM41.1419 25.48C42.5552 25.48 43.6485 25.04 44.4219 24.16C45.1952 23.2533 45.6219 21.9333 45.7019 20.2C45.7285 19.8 45.7419 19.28 45.7419 18.64C45.7419 18 45.7285 17.48 45.7019 17.08C45.6219 15.3733 45.1952 14.0667 44.4219 13.16C43.6485 12.2533 42.5552 11.8 41.1419 11.8C39.7285 11.8 38.6352 12.2533 37.8619 13.16C37.0885 14.0667 36.6619 15.3733 36.5819 17.08C36.5552 17.48 36.5419 18 36.5419 18.64C36.5419 19.28 36.5552 19.8 36.5819 20.2C36.6619 21.9333 37.0885 23.2533 37.8619 24.16C38.6352 25.04 39.7285 25.48 41.1419 25.48Z" fill="black"/>
<path d="M67.1338 29.44C65.5871 29.44 64.2937 29.1733 63.2537 28.64C62.2404 28.1067 61.4004 27.4267 60.7337 26.6V28.08C60.7337 28.3467 60.6404 28.5733 60.4538 28.76C60.2938 28.9467 60.0671 29.04 59.7738 29.04H56.6138C56.3471 29.04 56.1204 28.9467 55.9338 28.76C55.7471 28.5733 55.6538 28.3467 55.6538 28.08V1.6C55.6538 1.33333 55.7471 1.10667 55.9338 0.92C56.1204 0.733333 56.3471 0.639999 56.6138 0.639999H60.0138C60.3071 0.639999 60.5337 0.733333 60.6937 0.92C60.8804 1.10667 60.9738 1.33333 60.9738 1.6V10.48C61.6404 9.70667 62.4671 9.08 63.4538 8.6C64.4671 8.09333 65.6938 7.84 67.1338 7.84C68.5471 7.84 69.7738 8.08 70.8138 8.56C71.8538 9.04 72.7204 9.72 73.4137 10.6C74.1337 11.4533 74.6804 12.4533 75.0537 13.6C75.4271 14.7467 75.6271 15.9867 75.6537 17.32C75.6804 17.8 75.6937 18.24 75.6937 18.64C75.6937 19.0133 75.6804 19.44 75.6537 19.92C75.6004 21.3067 75.3871 22.5867 75.0137 23.76C74.6404 24.9067 74.1071 25.9067 73.4137 26.76C72.7204 27.6133 71.8538 28.28 70.8138 28.76C69.7738 29.2133 68.5471 29.44 67.1338 29.44ZM65.6537 25.16C66.8004 25.16 67.6937 24.92 68.3337 24.44C68.9737 23.9333 69.4271 23.28 69.6937 22.48C69.9871 21.68 70.1604 20.8 70.2138 19.84C70.2671 19.04 70.2671 18.24 70.2138 17.44C70.1604 16.48 69.9871 15.6 69.6937 14.8C69.4271 14 68.9737 13.36 68.3337 12.88C67.6937 12.3733 66.8004 12.12 65.6537 12.12C64.5871 12.12 63.7204 12.36 63.0537 12.84C62.3871 13.32 61.8804 13.9333 61.5338 14.68C61.1871 15.4 61.0004 16.16 60.9738 16.96C60.9471 17.44 60.9338 17.96 60.9338 18.52C60.9338 19.0533 60.9471 19.56 60.9738 20.04C61.0271 20.8667 61.2004 21.68 61.4938 22.48C61.8138 23.2533 62.3071 23.8933 62.9738 24.4C63.6671 24.9067 64.5604 25.16 65.6537 25.16Z" fill="black"/>
<path d="M81.105 29.04C80.8383 29.04 80.6117 28.9467 80.425 28.76C80.2383 28.5733 80.145 28.3467 80.145 28.08V9.2C80.145 8.93333 80.2383 8.70667 80.425 8.52C80.6117 8.33333 80.8383 8.24 81.105 8.24H84.425C84.7183 8.24 84.945 8.33333 85.105 8.52C85.2917 8.70667 85.385 8.93333 85.385 9.2V28.08C85.385 28.3467 85.2917 28.5733 85.105 28.76C84.945 28.9467 84.7183 29.04 84.425 29.04H81.105ZM80.945 4.8C80.6517 4.8 80.4117 4.72 80.225 4.56C80.065 4.37333 79.985 4.13333 79.985 3.84V0.96C79.985 0.693333 80.065 0.466666 80.225 0.279999C80.4117 0.0933329 80.6517 0 80.945 0H84.585C84.8783 0 85.1183 0.0933329 85.305 0.279999C85.4917 0.466666 85.585 0.693333 85.585 0.96V3.84C85.585 4.13333 85.4917 4.37333 85.305 4.56C85.1183 4.72 84.8783 4.8 84.585 4.8H80.945Z" fill="black"/>
<path d="M91.6919 29.04C91.4252 29.04 91.1985 28.9467 91.0119 28.76C90.8252 28.5733 90.7319 28.3467 90.7319 28.08V1.6C90.7319 1.33333 90.8252 1.10667 91.0119 0.92C91.1985 0.733333 91.4252 0.639999 91.6919 0.639999H95.0119C95.2785 0.639999 95.5052 0.733333 95.6919 0.92C95.8785 1.10667 95.9719 1.33333 95.9719 1.6V28.08C95.9719 28.3467 95.8785 28.5733 95.6919 28.76C95.5052 28.9467 95.2785 29.04 95.0119 29.04H91.6919Z" fill="black"/>
<path d="M110.238 29.44C107.278 29.44 104.931 28.5867 103.198 26.88C101.464 25.1733 100.531 22.7467 100.398 19.6C100.371 19.3333 100.358 19 100.358 18.6C100.358 18.1733 100.371 17.84 100.398 17.6C100.504 15.6 100.958 13.8667 101.758 12.4C102.584 10.9333 103.718 9.81333 105.158 9.04C106.598 8.24 108.291 7.84 110.238 7.84C112.398 7.84 114.211 8.29333 115.678 9.2C117.144 10.08 118.251 11.32 118.998 12.92C119.744 14.4933 120.118 16.32 120.118 18.4V19.24C120.118 19.5067 120.024 19.7333 119.838 19.92C119.651 20.1067 119.411 20.2 119.118 20.2H105.838C105.838 20.2 105.838 20.24 105.838 20.32C105.838 20.4 105.838 20.4667 105.838 20.52C105.864 21.4533 106.038 22.32 106.358 23.12C106.704 23.8933 107.198 24.52 107.838 25C108.504 25.48 109.291 25.72 110.198 25.72C110.944 25.72 111.571 25.6133 112.078 25.4C112.584 25.16 112.998 24.8933 113.318 24.6C113.638 24.3067 113.864 24.0667 113.998 23.88C114.238 23.56 114.424 23.3733 114.558 23.32C114.718 23.24 114.944 23.2 115.238 23.2H118.678C118.944 23.2 119.158 23.28 119.318 23.44C119.504 23.6 119.584 23.8 119.558 24.04C119.531 24.4667 119.304 24.9867 118.878 25.6C118.478 26.2133 117.891 26.8133 117.118 27.4C116.344 27.9867 115.371 28.48 114.198 28.88C113.051 29.2533 111.731 29.44 110.238 29.44ZM105.838 16.84H114.678V16.72C114.678 15.68 114.504 14.7733 114.158 14C113.811 13.2267 113.304 12.6133 112.638 12.16C111.971 11.7067 111.171 11.48 110.238 11.48C109.304 11.48 108.504 11.7067 107.838 12.16C107.171 12.6133 106.664 13.2267 106.318 14C105.998 14.7733 105.838 15.68 105.838 16.72V16.84Z" fill="black"/>
<path d="M134.944 29.04C134.678 29.04 134.451 28.96 134.264 28.8C134.078 28.6133 133.984 28.3733 133.984 28.08V2.04C133.984 1.74667 134.078 1.50667 134.264 1.32C134.451 1.13333 134.678 1.04 134.944 1.04H138.584C138.878 1.04 139.104 1.13333 139.264 1.32C139.451 1.50667 139.544 1.74667 139.544 2.04V12.36H151.344V2.04C151.344 1.74667 151.438 1.50667 151.624 1.32C151.811 1.13333 152.038 1.04 152.304 1.04H155.904C156.198 1.04 156.438 1.13333 156.624 1.32C156.811 1.50667 156.904 1.74667 156.904 2.04V28.08C156.904 28.3467 156.811 28.5733 156.624 28.76C156.438 28.9467 156.198 29.04 155.904 29.04H152.304C152.038 29.04 151.811 28.9467 151.624 28.76C151.438 28.5733 151.344 28.3467 151.344 28.08V17.36H139.544V28.08C139.544 28.3467 139.451 28.5733 139.264 28.76C139.104 28.9467 138.878 29.04 138.584 29.04H134.944Z" fill="black"/>
<path d="M171.845 29.44C169.712 29.44 167.912 29.0667 166.445 28.32C165.005 27.5733 163.898 26.52 163.125 25.16C162.378 23.8 161.952 22.2133 161.845 20.4C161.818 19.92 161.805 19.3333 161.805 18.64C161.805 17.9467 161.818 17.36 161.845 16.88C161.952 15.04 162.392 13.4533 163.165 12.12C163.965 10.76 165.085 9.70667 166.525 8.96C167.992 8.21333 169.765 7.84 171.845 7.84C173.925 7.84 175.685 8.21333 177.125 8.96C178.592 9.70667 179.712 10.76 180.485 12.12C181.285 13.4533 181.738 15.04 181.845 16.88C181.872 17.36 181.885 17.9467 181.885 18.64C181.885 19.3333 181.872 19.92 181.845 20.4C181.738 22.2133 181.298 23.8 180.525 25.16C179.778 26.52 178.672 27.5733 177.205 28.32C175.765 29.0667 173.978 29.44 171.845 29.44ZM171.845 25.48C173.258 25.48 174.352 25.04 175.125 24.16C175.898 23.2533 176.325 21.9333 176.405 20.2C176.432 19.8 176.445 19.28 176.445 18.64C176.445 18 176.432 17.48 176.405 17.08C176.325 15.3733 175.898 14.0667 175.125 13.16C174.352 12.2533 173.258 11.8 171.845 11.8C170.432 11.8 169.338 12.2533 168.565 13.16C167.792 14.0667 167.365 15.3733 167.285 17.08C167.258 17.48 167.245 18 167.245 18.64C167.245 19.28 167.258 19.8 167.285 20.2C167.365 21.9333 167.792 23.2533 168.565 24.16C169.338 25.04 170.432 25.48 171.845 25.48Z" fill="black"/>
<path d="M194.037 29.44C192.41 29.44 190.997 29.08 189.797 28.36C188.624 27.6133 187.717 26.5733 187.077 25.24C186.437 23.88 186.117 22.28 186.117 20.44V9.2C186.117 8.93333 186.21 8.70667 186.397 8.52C186.584 8.33333 186.81 8.24 187.077 8.24H190.597C190.89 8.24 191.117 8.33333 191.277 8.52C191.464 8.70667 191.557 8.93333 191.557 9.2V20.2C191.557 23.5067 193.01 25.16 195.917 25.16C197.304 25.16 198.397 24.72 199.197 23.84C200.024 22.96 200.437 21.7467 200.437 20.2V9.2C200.437 8.93333 200.53 8.70667 200.717 8.52C200.904 8.33333 201.13 8.24 201.397 8.24H204.917C205.184 8.24 205.41 8.33333 205.597 8.52C205.784 8.70667 205.877 8.93333 205.877 9.2V28.08C205.877 28.3467 205.784 28.5733 205.597 28.76C205.41 28.9467 205.184 29.04 204.917 29.04H201.677C201.384 29.04 201.144 28.9467 200.957 28.76C200.797 28.5733 200.717 28.3467 200.717 28.08V26.44C199.997 27.3733 199.104 28.1067 198.037 28.64C196.97 29.1733 195.637 29.44 194.037 29.44Z" fill="black"/>
<path d="M212.121 29.04C211.854 29.04 211.627 28.9467 211.441 28.76C211.254 28.5733 211.161 28.3467 211.161 28.08V9.24C211.161 8.94667 211.254 8.70667 211.441 8.52C211.627 8.33333 211.854 8.24 212.121 8.24H215.361C215.627 8.24 215.854 8.33333 216.041 8.52C216.254 8.70667 216.361 8.94667 216.361 9.24V10.88C216.974 10.0267 217.761 9.37333 218.721 8.92C219.707 8.46667 220.841 8.24 222.121 8.24H223.761C224.054 8.24 224.281 8.33333 224.441 8.52C224.627 8.70667 224.721 8.93333 224.721 9.2V12.08C224.721 12.3467 224.627 12.5733 224.441 12.76C224.281 12.9467 224.054 13.04 223.761 13.04H220.641C219.361 13.04 218.361 13.4 217.641 14.12C216.947 14.84 216.601 15.8267 216.601 17.08V28.08C216.601 28.3467 216.507 28.5733 216.321 28.76C216.134 28.9467 215.894 29.04 215.601 29.04H212.121Z" fill="black"/>
</svg>
